<?xml version="1.0" encoding="UTF-8"?>
<!--Generator: Apple Native CoreSVG 341-->
<!DOCTYPE svg
PUBLIC "-//W3C//DTD SVG 1.1//EN"
       "http://www.w3.org/Graphics/SVG/1.1/DTD/svg11.dtd">
<svg version="1.1" xmlns="http://www.w3.org/2000/svg" xmlns:xlink="http://www.w3.org/1999/xlink" viewBox="0 0 3300 2200">
 <g id="Notes">
  <rect height="2200" id="artboard" style="fill:white;opacity:1" width="3300" x="0" y="0"/>
  <line style="fill:none;stroke:black;opacity:1;stroke-width:0.5;" x1="263" x2="3036" y1="292" y2="292"/>
  <text style="stroke:none;fill:black;font-family:sans-serif;font-size:13;font-weight:bold;" transform="matrix(1 0 0 1 263 322)">Weight/Scale Variations</text>
  <text style="stroke:none;fill:black;font-family:sans-serif;font-size:13;text-anchor:middle;" transform="matrix(1 0 0 1 559.711 322)">Ultralight</text>
  <text style="stroke:none;fill:black;font-family:sans-serif;font-size:13;text-anchor:middle;" transform="matrix(1 0 0 1 856.422 322)">Thin</text>
  <text style="stroke:none;fill:black;font-family:sans-serif;font-size:13;text-anchor:middle;" transform="matrix(1 0 0 1 1153.13 322)">Light</text>
  <text style="stroke:none;fill:black;font-family:sans-serif;font-size:13;text-anchor:middle;" transform="matrix(1 0 0 1 1449.84 322)">Regular</text>
  <text style="stroke:none;fill:black;font-family:sans-serif;font-size:13;text-anchor:middle;" transform="matrix(1 0 0 1 1746.56 322)">Medium</text>
  <text style="stroke:none;fill:black;font-family:sans-serif;font-size:13;text-anchor:middle;" transform="matrix(1 0 0 1 2043.27 322)">Semibold</text>
  <text style="stroke:none;fill:black;font-family:sans-serif;font-size:13;text-anchor:middle;" transform="matrix(1 0 0 1 2339.98 322)">Bold</text>
  <text style="stroke:none;fill:black;font-family:sans-serif;font-size:13;text-anchor:middle;" transform="matrix(1 0 0 1 2636.69 322)">Heavy</text>
  <text style="stroke:none;fill:black;font-family:sans-serif;font-size:13;text-anchor:middle;" transform="matrix(1 0 0 1 2933.4 322)">Black</text>
  <line style="fill:none;stroke:black;opacity:1;stroke-width:0.5;" x1="263" x2="3036" y1="1903" y2="1903"/>
  <g transform="matrix(0.2 0 0 0.2 263 1933)">
   <path d="m46.2402 4.15039c21.7773 0 39.4531-17.627 39.4531-39.4043s-17.6758-39.4043-39.4531-39.4043c-21.7285 0-39.4043 17.627-39.4043 39.4043s17.6758 39.4043 39.4043 39.4043Zm0-7.42188c-17.6758 0-31.9336-14.3066-31.9336-31.9824s14.2578-31.9824 31.9336-31.9824 31.9824 14.3066 31.9824 31.9824-14.3066 31.9824-31.9824 31.9824Zm3.61328-17.7734v-28.4668c0-2.24609-1.46484-3.75977-3.71094-3.75977-2.14844 0-3.61328 1.51367-3.61328 3.75977v28.4668c0 2.19727 1.46484 3.71094 3.61328 3.71094 2.24609 0 3.71094-1.51367 3.71094-3.71094Zm-17.8223-10.5957h28.418c2.19727 0 3.71094-1.46484 3.71094-3.61328 0-2.19727-1.51367-3.71094-3.71094-3.71094h-28.418c-2.24609 0-3.75977 1.51367-3.75977 3.71094 0 2.14844 1.51367 3.61328 3.75977 3.61328Z"/>
  </g>
  <g transform="matrix(0.2 0 0 0.2 281.506 1933)">
   <path d="m58.5449 14.5508c27.4902 0 49.8047-22.3145 49.8047-49.8047s-22.3145-49.8047-49.8047-49.8047-49.8047 22.3145-49.8047 49.8047 22.3145 49.8047 49.8047 49.8047Zm0-8.30078c-22.9492 0-41.5039-18.5547-41.5039-41.5039s18.5547-41.5039 41.5039-41.5039 41.5039 18.5547 41.5039 41.5039-18.5547 41.5039-41.5039 41.5039Zm4.05273-23.0957v-36.9141c0-2.49023-1.70898-4.19922-4.15039-4.19922-2.39258 0-4.05273 1.70898-4.05273 4.19922v36.9141c0 2.44141 1.66016 4.15039 4.05273 4.15039 2.44141 0 4.15039-1.66016 4.15039-4.15039Zm-22.5586-14.4043h36.9629c2.44141 0 4.15039-1.61133 4.15039-4.00391 0-2.44141-1.70898-4.15039-4.15039-4.15039h-36.9629c-2.49023 0-4.15039 1.70898-4.15039 4.15039 0 2.39258 1.66016 4.00391 4.15039 4.00391Z"/>
  </g>
  <g transform="matrix(0.2 0 0 0.2 304.924 1933)">
   <path d="m74.8535 28.3203c35.1074 0 63.623-28.4668 63.623-63.5742s-28.5156-63.623-63.623-63.623-63.5742 28.5156-63.5742 63.623 28.4668 63.5742 63.5742 63.5742Zm0-9.08203c-30.127 0-54.4922-24.3652-54.4922-54.4922s24.3652-54.4922 54.4922-54.4922 54.4922 24.3652 54.4922 54.4922-24.3652 54.4922-54.4922 54.4922Zm4.44336-30.3223v-48.4863c0-2.73438-1.85547-4.63867-4.54102-4.63867-2.58789 0-4.44336 1.9043-4.44336 4.63867v48.4863c0 2.68555 1.85547 4.58984 4.44336 4.58984 2.68555 0 4.54102-1.85547 4.54102-4.58984Zm-28.7109-19.7754h48.4863c2.68555 0 4.58984-1.80664 4.58984-4.39453 0-2.73438-1.85547-4.58984-4.58984-4.58984h-48.4863c-2.73438 0-4.58984 1.85547-4.58984 4.58984 0 2.58789 1.85547 4.39453 4.58984 4.39453Z"/>
  </g>
  <text style="stroke:none;fill:black;font-family:sans-serif;font-size:13;font-weight:bold;" transform="matrix(1 0 0 1 263 1953)">Design Variations</text>
  <text style="stroke:none;fill:black;font-family:sans-serif;font-size:13;" transform="matrix(1 0 0 1 263 1971)">Symbols are supported in up to nine weights and three scales.</text>
  <text style="stroke:none;fill:black;font-family:sans-serif;font-size:13;" transform="matrix(1 0 0 1 263 1989)">For optimal layout with text and other symbols, vertically align</text>
  <text style="stroke:none;fill:black;font-family:sans-serif;font-size:13;" transform="matrix(1 0 0 1 263 2007)">symbols with the adjacent text.</text>
  <line style="fill:none;stroke:#00AEEF;stroke-width:0.5;opacity:1.0;" x1="776" x2="776" y1="1919" y2="1933"/>
  <g transform="matrix(0.2 0 0 0.2 776 1933)">
   <path d="m16.5527 0.78125c2.58789 0 3.85742-0.976562 4.78516-3.71094l20.5566-57.5195h0.244141l20.6055 57.5195c0.927734 2.73438 2.19727 3.71094 4.73633 3.71094 2.58789 0 4.24805-1.5625 4.24805-4.00391 0-0.830078-0.146484-1.61133-0.537109-2.63672l-22.9004-60.9863c-1.12305-2.97852-3.125-4.49219-6.25-4.49219-3.02734 0-5.07812 1.46484-6.15234 4.44336l-22.9004 61.084c-0.390625 1.02539-0.537109 1.80664-0.537109 2.63672 0 2.44141 1.5625 3.95508 4.10156 3.95508Zm10.2051-20.9473h30.6641c2.00195 0 3.66211-1.66016 3.66211-3.66211 0-2.05078-1.66016-3.66211-3.66211-3.66211h-30.6641c-2.00195 0-3.66211 1.61133-3.66211 3.66211 0 2.00195 1.66016 3.66211 3.66211 3.66211Z"/>
  </g>
  <line style="fill:none;stroke:#00AEEF;stroke-width:0.5;opacity:1.0;" x1="792.836" x2="792.836" y1="1919" y2="1933"/>
  <text style="stroke:none;fill:black;font-family:sans-serif;font-size:13;font-weight:bold;" transform="matrix(1 0 0 1 776 1953)">Margins</text>
  <text style="stroke:none;fill:black;font-family:sans-serif;font-size:13;" transform="matrix(1 0 0 1 776 1971)">Leading and trailing margins on the left and right side of each symbol</text>
  <text style="stroke:none;fill:black;font-family:sans-serif;font-size:13;" transform="matrix(1 0 0 1 776 1989)">can be adjusted by modifying the x-location of the margin guidelines.</text>
  <text style="stroke:none;fill:black;font-family:sans-serif;font-size:13;" transform="matrix(1 0 0 1 776 2007)">Modifications are automatically applied proportionally to all</text>
  <text style="stroke:none;fill:black;font-family:sans-serif;font-size:13;" transform="matrix(1 0 0 1 776 2025)">scales and weights.</text>
  <g transform="matrix(0.2 0 0 0.2 1289 1933)">
   <path d="m14.209 13.1348 7.86133 7.86133c4.29688 4.39453 9.32617 4.10156 13.8672-1.02539l60.6934-68.2129-4.88281-4.88281-60.2539 67.6758c-1.80664 1.95312-3.4668 2.44141-5.81055 0.0976562l-5.17578-5.12695c-2.29492-2.29492-1.80664-3.95508 0.195312-5.81055l67.4805-62.1582-4.88281-4.83398-68.0664 62.5977c-4.98047 4.58984-5.32227 9.47266-1.02539 13.8184Zm44.873-97.4609c-2.05078 2.00195-2.24609 4.88281-1.07422 6.78711 1.12305 1.80664 3.4668 3.02734 6.5918 2.24609 5.85938-1.66016 12.5977-2.39258 18.8965 0.927734l-2.68555 7.12891c-1.61133 4.00391-0.732422 6.88477 1.70898 9.42383l10.2539 10.3027c2.34375 2.39258 4.54102 2.44141 7.08008 1.95312l4.44336-0.732422 2.58789 2.53906-0.195312 2.24609c-0.0976562 2.29492 0.537109 4.29688 2.7832 6.49414l3.36914 3.32031c2.29492 2.29492 5.51758 2.49023 7.8125 0.195312l12.9883-13.0371c2.29492-2.34375 2.14844-5.37109-0.195312-7.66602l-3.41797-3.41797c-2.19727-2.19727-4.05273-3.02734-6.34766-2.88086l-2.34375 0.244141-2.44141-2.44141 1.02539-4.6875c0.634766-2.73438-0.244141-4.98047-2.88086-7.61719l-11.2793-11.1816c-12.9395-12.8418-35.5957-11.0352-46.6797-0.146484Zm7.08008 2.05078c8.78906-6.39648 25.9766-5.66406 33.6914 1.95312l12.3047 12.207c1.02539 1.02539 1.2207 1.80664 0.927734 3.32031l-1.46484 6.64062 6.73828 6.68945 4.39453-0.244141c1.12305-0.0488281 1.51367 0.0488281 2.34375 0.878906l2.53906 2.49023-10.8398 10.8398-2.49023-2.49023c-0.830078-0.878906-0.976562-1.2207-0.927734-2.39258l0.292969-4.3457-6.68945-6.73828-6.83594 1.17188c-1.41602 0.292969-2.05078 0.195312-3.17383-0.878906l-8.93555-8.88672c-1.07422-1.02539-1.17188-1.70898-0.488281-3.36914l4.58984-11.4746c-6.10352-6.34766-17.041-7.51953-25.5859-4.58984-0.683594 0.244141-0.927734-0.390625-0.390625-0.78125Z"/>
  </g>
  <text style="stroke:none;fill:black;font-family:sans-serif;font-size:13;font-weight:bold;" transform="matrix(1 0 0 1 1289 1953)">Exporting</text>
  <text style="stroke:none;fill:black;font-family:sans-serif;font-size:13;" transform="matrix(1 0 0 1 1289 1971)">Symbols should be outlined when exporting to ensure the</text>
  <text style="stroke:none;fill:black;font-family:sans-serif;font-size:13;" transform="matrix(1 0 0 1 1289 1989)">design is preserved when submitting to Xcode.</text>
  <text id="template-version" style="stroke:none;fill:black;font-family:sans-serif;font-size:13;text-anchor:end;" transform="matrix(1 0 0 1 3036 1933)">Template v.2.0</text>
  <text style="stroke:none;fill:black;font-family:sans-serif;font-size:13;text-anchor:end;" transform="matrix(1 0 0 1 3036 1951)">Requires Xcode 12 or greater</text>
  <text id="descriptive-name" style="stroke:none;fill:black;font-family:sans-serif;font-size:13;text-anchor:end;" transform="matrix(1 0 0 1 3036 1969)">Generated from plus.square.fill.on.square.fill</text>
  <text style="stroke:none;fill:black;font-family:sans-serif;font-size:13;text-anchor:end;" transform="matrix(1 0 0 1 3036 1987)">Typeset at 100.0 points</text>
  <text style="stroke:none;fill:black;font-family:sans-serif;font-size:13;" transform="matrix(1 0 0 1 263 726)">Small</text>
  <text style="stroke:none;fill:black;font-family:sans-serif;font-size:13;" transform="matrix(1 0 0 1 263 1156)">Medium</text>
  <text style="stroke:none;fill:black;font-family:sans-serif;font-size:13;" transform="matrix(1 0 0 1 263 1586)">Large</text>
 </g>
 <g id="Guides">
  <g id="H-reference" style="fill:#27AAE1;stroke:none;" transform="matrix(1 0 0 1 339 696)">
   <path d="M0.993654 0L3.63775 0L29.3281-67.1323L30.0303-67.1323L30.0303-70.459L28.1226-70.459ZM11.6885-24.4799L46.9815-24.4799L46.2315-26.7285L12.4385-26.7285ZM55.1196 0L57.7637 0L30.6382-70.459L29.4326-70.459L29.4326-67.1323Z"/>
  </g>
  <line id="Baseline-S" style="fill:none;stroke:#27AAE1;opacity:1;stroke-width:0.5;" x1="263" x2="3036" y1="696" y2="696"/>
  <line id="Capline-S" style="fill:none;stroke:#27AAE1;opacity:1;stroke-width:0.5;" x1="263" x2="3036" y1="625.541" y2="625.541"/>
  <g id="H-reference" style="fill:#27AAE1;stroke:none;" transform="matrix(1 0 0 1 339 1126)">
   <path d="M0.993654 0L3.63775 0L29.3281-67.1323L30.0303-67.1323L30.0303-70.459L28.1226-70.459ZM11.6885-24.4799L46.9815-24.4799L46.2315-26.7285L12.4385-26.7285ZM55.1196 0L57.7637 0L30.6382-70.459L29.4326-70.459L29.4326-67.1323Z"/>
  </g>
  <line id="Baseline-M" style="fill:none;stroke:#27AAE1;opacity:1;stroke-width:0.5;" x1="263" x2="3036" y1="1126" y2="1126"/>
  <line id="Capline-M" style="fill:none;stroke:#27AAE1;opacity:1;stroke-width:0.5;" x1="263" x2="3036" y1="1055.54" y2="1055.54"/>
  <g id="H-reference" style="fill:#27AAE1;stroke:none;" transform="matrix(1 0 0 1 339 1556)">
   <path d="M0.993654 0L3.63775 0L29.3281-67.1323L30.0303-67.1323L30.0303-70.459L28.1226-70.459ZM11.6885-24.4799L46.9815-24.4799L46.2315-26.7285L12.4385-26.7285ZM55.1196 0L57.7637 0L30.6382-70.459L29.4326-70.459L29.4326-67.1323Z"/>
  </g>
  <line id="Baseline-L" style="fill:none;stroke:#27AAE1;opacity:1;stroke-width:0.5;" x1="263" x2="3036" y1="1556" y2="1556"/>
  <line id="Capline-L" style="fill:none;stroke:#27AAE1;opacity:1;stroke-width:0.5;" x1="263" x2="3036" y1="1485.54" y2="1485.54"/>
  <line id="right-margin" style="fill:none;stroke:#00AEEF;stroke-width:0.5;opacity:1.0;" x1="1513.96" x2="1513.96" y1="1030.79" y2="1150.12"/>
  <line id="left-margin" style="fill:none;stroke:#00AEEF;stroke-width:0.5;opacity:1.0;" x1="1385.73" x2="1385.73" y1="1030.79" y2="1150.12"/>
 </g>
 <g id="Symbols">
  <g id="Black-L" transform="matrix(1 0 0 1 2843.68 1556)">
   <path d="M76.2559 37.7724L139.585 37.7724C154.728 37.7724 163.357 29.1833 163.357 14.084L163.357-49.4118C163.357-64.5111 154.728-73.1002 139.585-73.1002L76.2559-73.1002C61.0917-73.1002 52.4842-64.5135 52.4842-49.4118L52.4842 14.084C52.4842 29.1856 61.0917 37.7724 76.2559 37.7724ZM16.084-20.9667C16.084-6.27393 24.3411 2.72164 39.8556 2.72164L41.2171 2.72164L41.2171-49.4118C41.2171-70.7526 54.8722-84.3662 76.2559-84.3662L126.957-84.3662L126.957-84.5794C126.957-99.5618 118.328-108.151 103.185-108.151L39.8556-108.151C24.6915-108.151 16.084-99.5642 16.084-84.4625ZM107.898 13.1606C102.958 13.1606 99.2641 9.54259 99.2641 4.71821L99.2641-9.02949L85.5372-9.02949C80.692-9.02949 77.0739-12.7239 77.0739-17.6639C77.0739-22.6271 80.6908-26.3424 85.5372-26.3424L99.2641-26.3424L99.2641-40.0681C99.2641-44.9133 102.958-48.5325 107.898-48.5325C112.862-48.5325 116.577-44.9145 116.577-40.0681L116.577-26.3424L130.323-26.3424C135.149-26.3424 138.767-22.6271 138.767-17.6639C138.767-12.7239 135.148-9.02949 130.323-9.02949L116.577-9.02949L116.577 4.71821C116.577 9.54379 112.862 13.1606 107.898 13.1606Z"/>
  </g>
  <g id="Heavy-L" transform="matrix(1 0 0 1 2548.69 1556)">
   <path d="M73.8533 35.9876L137.164 35.9876C151.776 35.9876 159.911 27.902 159.911 13.3609L159.911-50.1911C159.911-64.7322 151.776-72.8178 137.164-72.8178L73.8533-72.8178C59.2104-72.8178 51.1058-64.7434 51.1058-50.1911L51.1058 13.3609C51.1058 27.9132 59.2104 35.9876 73.8533 35.9876ZM16.084-20.1875C16.084-5.94753 23.9209 2.43926 38.8315 2.43926L40.5497 2.43926L40.5497-50.1911C40.5497-70.5887 53.3897-83.3683 73.8533-83.3683L124.889-83.3683L124.889-83.8287C124.889-98.2806 116.755-106.366 102.142-106.366L38.8315-106.366C24.1886-106.366 16.084-98.2918 16.084-83.7395ZM105.473 12.1733C100.999 12.1733 97.6872 8.89553 97.6872 4.50582L97.6872-10.6295L82.582-10.6295C78.1621-10.6295 74.8844-13.9418 74.8844-18.4151C74.8844-22.9298 78.1565-26.2722 82.582-26.2722L97.6872-26.2722L97.6872-41.3718C97.6872-45.7917 100.999-49.075 105.473-49.075C109.988-49.075 113.33-45.7973 113.33-41.3718L113.33-26.2722L128.46-26.2722C132.855-26.2722 136.133-22.9298 136.133-18.4151C136.133-13.9418 132.849-10.6295 128.46-10.6295L113.33-10.6295L113.33 4.50582C113.33 8.90114 109.988 12.1733 105.473 12.1733Z"/>
  </g>
  <g id="Bold-L" transform="matrix(1 0 0 1 2254.05 1556)">
   <path d="M71.0211 33.7449L134.316 33.7449C148.231 33.7449 155.773 26.2519 155.773 12.4396L155.773-51.1592C155.773-64.9714 148.231-72.4645 134.316-72.4645L71.0211-72.4645C57.0684-72.4645 49.5639-64.9979 49.5639-51.1592L49.5639 12.4396C49.5639 26.2784 57.0684 33.7449 71.0211 33.7449ZM16.084-19.2194C16.084-5.58508 23.4133 2.08591 37.5412 2.08591L39.9584 2.08591L39.9584-51.1592C39.9584-70.3143 51.7768-82.0567 71.0211-82.0567L122.293-82.0567L122.293-82.8766C122.293-96.6305 114.751-104.123 100.836-104.123L37.5412-104.123C23.5885-104.123 16.084-96.6569 16.084-82.8182ZM102.617 10.8546C98.7651 10.8546 95.9366 8.0218 95.9366 4.21471L95.9366-12.679L79.0809-12.679C75.2358-12.679 72.403-15.5075 72.403-19.3598C72.403-23.2765 75.2226-26.1429 79.0809-26.1429L95.9366-26.1429L95.9366-42.9855C95.9366-46.8306 98.7651-49.6766 102.617-49.6766C106.534-49.6766 109.401-46.8438 109.401-42.9855L109.401-26.1429L126.281-26.1429C130.101-26.1429 132.934-23.2765 132.934-19.3598C132.934-15.5075 130.088-12.679 126.281-12.679L109.401-12.679L109.401 4.21471C109.401 8.03503 106.534 10.8546 102.617 10.8546Z"/>
  </g>
  <g id="Semibold-L" transform="matrix(1 0 0 1 1958.76 1556)">
   <path d="M69.0686 32.1988L132.353 32.1988C145.786 32.1988 152.921 25.1143 152.921 11.8045L152.921-51.8266C152.921-65.1364 145.786-72.2209 132.353-72.2209L69.0686-72.2209C55.5918-72.2209 48.5009-65.1734 48.5009-51.8266L48.5009 11.8045C48.5009 25.1513 55.5918 32.1988 69.0686 32.1988ZM16.084-18.552C16.084-5.33521 23.0634 1.84231 36.6517 1.84231L39.5508 1.84231L39.5508-51.8266C39.5508-70.1251 50.6649-81.1525 69.0686-81.1525L120.504-81.1525L120.504-82.2202C120.504-95.4929 113.369-102.577 99.9359-102.577L36.6517-102.577C23.1749-102.577 16.084-95.5299 16.084-82.1831ZM100.649 9.94551C97.2248 9.94551 94.7298 7.41946 94.7298 4.01401L94.7298-14.092L76.6672-14.092C73.2184-14.092 70.6923-16.5869 70.6923-20.011C70.6923-23.5155 73.1999-26.0538 76.6672-26.0538L94.7298-26.0538L94.7298-44.0979C94.7298-47.5467 97.2248-50.0913 100.649-50.0913C104.153-50.0913 106.692-47.5652 106.692-44.0979L106.692-26.0538L124.779-26.0538C128.203-26.0538 130.729-23.5155 130.729-20.011C130.729-16.5869 128.185-14.092 124.779-14.092L106.692-14.092L106.692 4.01401C106.692 7.43794 104.153 9.94551 100.649 9.94551Z"/>
  </g>
  <g id="Medium-L" transform="matrix(1 0 0 1 1663.13 1556)">
   <path d="M67.5882 31.0265L130.864 31.0265C143.933 31.0265 150.758 24.2518 150.758 11.3229L150.758-52.3326C150.758-65.2615 143.933-72.0362 130.864-72.0362L67.5882-72.0362C54.4721-72.0362 47.6949-65.3064 47.6949-52.3326L47.6949 11.3229C47.6949 24.2967 54.4721 31.0265 67.5882 31.0265ZM16.084-18.0459C16.084-5.14575 22.7981 1.65761 35.9773 1.65761L39.2417 1.65761L39.2417-52.3326C39.2417-69.9817 49.8218-80.4669 67.5882-80.4669L119.147-80.4669L119.147-81.7225C119.147-94.6304 112.322-101.405 99.2533-101.405L35.9773-101.405C22.8612-101.405 16.084-94.6753 16.084-81.7015ZM99.1563 9.25621C96.0568 9.25621 93.8148 6.96274 93.8148 3.86184L93.8148-15.1633L74.8371-15.1633C71.6887-15.1633 69.3952-17.4054 69.3952-20.5048C69.3952-23.6967 71.6662-25.9862 74.8371-25.9862L93.8148-25.9862L93.8148-44.9414C93.8148-48.0898 96.0568-50.4057 99.1563-50.4057C102.348-50.4057 104.638-48.1122 104.638-44.9414L104.638-25.9862L123.64-25.9862C126.764-25.9862 129.057-23.6967 129.057-20.5048C129.057-17.4054 126.741-15.1633 123.64-15.1633L104.638-15.1633L104.638 3.86184C104.638 6.98521 102.348 9.25621 99.1563 9.25621Z"/>
  </g>
  <g id="Regular-L" transform="matrix(1 0 0 1 1367.83 1556)">
   <path d="M65.6572 29.4974L128.923 29.4974C141.515 29.4974 147.936 23.1267 147.936 10.6948L147.936-52.9927C147.936-65.4246 141.515-71.7953 128.923-71.7953L65.6572-71.7953C53.0116-71.7953 46.6436-65.4799 46.6436-52.9927L46.6436 10.6948C46.6436 23.182 53.0116 29.4974 65.6572 29.4974ZM16.084-17.3859C16.084-4.89863 22.4521 1.41669 35.0976 1.41669L38.8385 1.41669L38.8385-52.9927C38.8385-69.7946 48.7221-79.5726 65.6572-79.5726L117.377-79.5726L117.377-81.0734C117.377-93.5053 110.956-99.8759 98.363-99.8759L35.0976-99.8759C22.4521-99.8759 16.084-93.5606 16.084-81.0734ZM97.2094 8.35712C94.5334 8.35712 92.6212 6.36702 92.6212 3.66335L92.6212-16.5607L72.4499-16.5607C69.6935-16.5607 67.7034-18.4729 67.7034-21.1489C67.7034-23.933 69.6658-25.898 72.4499-25.898L92.6212-25.898L92.6212-46.0417C92.6212-48.7981 94.5334-50.8159 97.2094-50.8159C99.9935-50.8159 101.959-48.8258 101.959-46.0417L101.959-25.898L122.155-25.898C124.886-25.898 126.876-23.933 126.876-21.1489C126.876-18.4729 124.859-16.5607 122.155-16.5607L101.959-16.5607L101.959 3.66335C101.959 6.39468 99.9935 8.35712 97.2094 8.35712Z"/>
  </g>
  <g id="Light-L" transform="matrix(1 0 0 1 1072.13 1556)">
   <path d="M64.6266 27.7415L127.93 27.7415C139.779 27.7415 145.913 21.5808 145.913 9.89321L145.913-53.6798C145.913-65.3674 139.779-71.5281 127.93-71.5281L64.6266-71.5281C52.7444-71.5281 46.6436-65.4609 46.6436-53.6798L46.6436 9.89321C46.6436 21.6743 52.7444 27.7415 64.6266 27.7415ZM16.084-16.6988C16.084-4.91771 22.1849 1.14949 34.067 1.14949L39.9455 1.14949L39.9455-53.6798C39.9455-69.1457 49.0466-78.1794 64.6266-78.1794L115.354-78.1794L115.354-80.2718C115.354-91.9594 109.219-98.1201 97.3705-98.1201L34.067-98.1201C22.1849-98.1201 16.084-92.0529 16.084-80.2718ZM96.1979 6.8303C94.2281 6.8303 92.7166 5.29825 92.7166 3.28164L92.7166-18.412L71.0567-18.412C69.0064-18.412 67.4744-19.9234 67.4744-21.8933C67.4744-23.9903 68.9597-25.5354 71.0567-25.5354L92.7166-25.5354L92.7166-47.1486C92.7166-49.1989 94.2281-50.7777 96.1979-50.7777C98.2949-50.7777 99.8401-49.2456 99.8401-47.1486L99.8401-25.5354L121.487-25.5354C123.55-25.5354 125.082-23.9903 125.082-21.8933C125.082-19.9234 123.504-18.412 121.487-18.412L99.8401-18.412L99.8401 3.28164C99.8401 5.34499 98.2949 6.8303 96.1979 6.8303Z"/>
  </g>
  <g id="Thin-L" transform="matrix(1 0 0 1 776.761 1556)">
   <path d="M63.2635 25.4193L126.618 25.4193C137.482 25.4193 143.237 19.5362 143.237 8.83305L143.237-54.5885C143.237-65.2916 137.482-71.1747 126.618-71.1747L63.2635-71.1747C52.3911-71.1747 46.6436-65.4356 46.6436-54.5885L46.6436 8.83305C46.6436 19.6802 52.3911 25.4193 63.2635 25.4193ZM16.084-15.7901C16.084-4.94296 21.8315 0.796109 32.7039 0.796109L41.4095 0.796109L41.4095-54.5885C41.4095-68.2874 49.4757-76.3368 63.2635-76.3368L112.678-76.3368L112.678-79.2116C112.678-89.9148 106.922-95.7978 96.058-95.7978L32.7039-95.7978C21.8315-95.7978 16.084-90.0588 16.084-79.2116ZM94.8601 4.81095C93.8242 4.81095 92.8428 3.88471 92.8428 2.7768L92.8428-20.8604L69.214-20.8604C68.0977-20.8604 67.1714-21.8418 67.1714-22.8777C67.1714-24.066 68.0257-25.0558 69.214-25.0558L92.8428-25.0558L92.8428-48.6126C92.8428-49.729 93.8242-50.7272 94.8601-50.7272C96.0484-50.7272 97.0382-49.801 97.0382-48.6126L97.0382-25.0558L120.603-25.0558C121.783-25.0558 122.71-24.066 122.71-22.8777C122.71-21.8418 121.711-20.8604 120.603-20.8604L97.0382-20.8604L97.0382 2.7768C97.0382 3.95669 96.0484 4.81095 94.8601 4.81095Z"/>
  </g>
  <g id="Ultralight-L" transform="matrix(1 0 0 1 480.736 1556)">
   <path d="M62.5654 24.2298L125.945 24.2298C136.305 24.2298 141.867 18.489 141.867 8.29005L141.867-55.0539C141.867-65.2529 136.305-70.9937 125.945-70.9937L62.5654-70.9937C52.2101-70.9937 46.6436-65.4227 46.6436-55.0539L46.6436 8.29005C46.6436 18.6588 52.2101 24.2298 62.5654 24.2298ZM16.084-15.3247C16.084-4.95588 21.6505 0.615107 32.0058 0.615107L42.1593 0.615107L42.1593-55.0539C42.1593-67.8479 49.6955-75.393 62.5654-75.393L111.307-75.393L111.307-78.6686C111.307-88.8676 105.745-94.6084 95.3857-94.6084L32.0058-94.6084C21.6505-94.6084 16.084-89.0374 16.084-78.6686ZM94.1749 3.77665C93.6173 3.77665 92.9075 3.1607 92.9075 2.51823L92.9075-22.1145L68.2702-22.1145C67.6323-22.1145 67.0163-22.8244 67.0163-23.3819C67.0163-24.1048 67.5473-24.8102 68.2702-24.8102L92.9075-24.8102L92.9075-49.3625C92.9075-50.0005 93.6173-50.7013 94.1749-50.7013C94.8978-50.7013 95.6031-50.0854 95.6031-49.3625L95.6031-24.8102L120.151-24.8102C120.878-24.8102 121.494-24.1048 121.494-23.3819C121.494-22.8244 120.793-22.1145 120.151-22.1145L95.6031-22.1145L95.6031 2.51823C95.6031 3.24561 94.8978 3.77665 94.1749 3.77665Z"/>
  </g>
  <g id="Black-M" transform="matrix(1 0 0 1 2862.55 1126)">
   <path d="M61.0038 22.6241L110.089 22.6241C122.176 22.6241 129.246 15.5655 129.246 3.48855L129.246-45.6405C129.246-57.7174 122.176-64.776 110.089-64.776L61.0038-64.776C48.911-64.776 41.8464-57.7169 41.8464-45.6405L41.8464 3.48855C41.8464 15.5649 48.911 22.6241 61.0038 22.6241ZM12.4609-24.7562C12.4609-13.0795 19.183-5.62068 31.6184-5.62068L32.6561-5.62068L32.6561-45.6405C32.6561-62.8037 43.8299-73.9665 61.0038-73.9665L99.861-73.9665L99.861-73.9994C99.861-85.9622 92.7909-93.0207 80.7035-93.0207L31.6184-93.0207C19.5256-93.0207 12.4609-85.9616 12.4609-73.8852ZM85.5412 2.9021C81.4086 2.9021 78.2722-0.131382 78.2722-4.14951L78.2722-13.807L68.6202-13.807C64.5966-13.807 61.5631-16.9434 61.5631-21.076C61.5631-25.2135 64.5969-28.3554 68.6202-28.3554L78.2722-28.3554L78.2722-38.0076C78.2722-42.0313 81.4086-45.0645 85.5412-45.0645C89.6787-45.0645 92.8206-42.031 92.8206-38.0076L92.8206-28.3554L102.478-28.3554C106.496-28.3554 109.53-25.2135 109.53-21.076C109.53-16.9434 106.496-13.807 102.478-13.807L92.8206-13.807L92.8206-4.14951C92.8206-0.131665 89.6787 2.9021 85.5412 2.9021Z"/>
  </g>
  <g id="Heavy-M" transform="matrix(1 0 0 1 2567.43 1126)">
   <path d="M58.7502 21.0414L107.813 21.0414C119.451 21.0414 126.065 14.4556 126.065 2.85565L126.065-46.3389C126.065-57.9388 119.451-64.5246 107.813-64.5246L58.7502-64.5246C47.0965-64.5246 40.4989-57.9434 40.4989-46.3389L40.4989 2.85565C40.4989 14.4601 47.0965 21.0414 58.7502 21.0414ZM12.4609-24.0578C12.4609-12.7587 18.7969-5.87207 30.7123-5.87207L31.9016-5.87207L31.9016-46.3389C31.9016-62.7033 42.3507-73.1196 58.7502-73.1196L98.0269-73.1196L98.0269-73.3396C98.0269-84.8522 91.4128-91.438 79.7756-91.438L30.7123-91.438C19.0586-91.438 12.4609-84.8568 12.4609-73.2523ZM83.2632 2.07772C79.5216 2.07772 76.7219-0.665333 76.7219-4.32192L76.7219-15.2003L65.8599-15.2003C62.1869-15.2003 59.4438-18.0001 59.4438-21.7416C59.4438-25.5041 62.1846-28.3203 65.8599-28.3203L76.7219-28.3203L76.7219-39.18C76.7219-42.853 79.5216-45.5983 83.2632-45.5983C87.0257-45.5983 89.8419-42.8553 89.8419-39.18L89.8419-28.3203L100.718-28.3203C104.377-28.3203 107.12-25.5041 107.12-21.7416C107.12-18.0001 104.375-15.2003 100.718-15.2003L89.8419-15.2003L89.8419-4.32192C89.8419-0.663059 87.0257 2.07772 83.2632 2.07772Z"/>
  </g>
  <g id="Bold-M" transform="matrix(1 0 0 1 2272.49 1126)">
   <path d="M56.2292 19.2709L105.268 19.2709C116.402 19.2709 122.506 13.214 122.506 2.14765L122.506-47.1202C122.506-58.1865 116.402-64.2434 105.268-64.2434L56.2292-64.2434C45.0668-64.2434 38.9915-58.1968 38.9915-47.1202L38.9915 2.14765C38.9915 13.2242 45.0668 19.2709 56.2292 19.2709ZM12.4609-23.2765C12.4609-12.3998 18.3649-6.15329 29.6986-6.15329L31.0576-6.15329L31.0576-47.1202C31.0576-62.591 40.696-72.1722 56.2292-72.1722L95.9752-72.1722L95.9752-72.6014C95.9752-83.6106 89.8713-89.6675 78.7375-89.6675L29.6986-89.6675C18.5362-89.6675 12.4609-83.6209 12.4609-72.5443ZM80.7149 1.15552C77.4108 1.15552 74.9876-1.26263 74.9876-4.51479L74.9876-16.759L62.7721-16.759C59.4913-16.759 57.0731-19.1821 57.0731-22.4863C57.0731-25.8293 59.4861-28.281 62.7721-28.281L74.9876-28.281L74.9876-40.4915C74.9876-43.7723 77.4108-46.1956 80.7149-46.1956C84.0579-46.1956 86.5097-43.7774 86.5097-40.4915L86.5097-28.281L98.7488-28.281C102.006-28.281 104.424-25.8293 104.424-22.4863C104.424-19.1821 102.001-16.759 98.7488-16.759L86.5097-16.759L86.5097-4.51479C86.5097-1.2575 84.0579 1.15552 80.7149 1.15552Z"/>
  </g>
  <g id="Semibold-M" transform="matrix(1 0 0 1 1977.01 1126)">
   <path d="M54.4913 18.0503L103.513 18.0503C114.3 18.0503 120.052 12.358 120.052 1.65957L120.052-47.6588C120.052-58.3572 114.3-64.0495 103.513-64.0495L54.4913-64.0495C43.6675-64.0495 37.9524-58.3714 37.9524-47.6588L37.9524 1.65957C37.9524 12.3722 43.6675 18.0503 54.4913 18.0503ZM12.4609-22.7379C12.4609-12.1523 18.0671-6.34716 28.9998-6.34716L30.4757-6.34716L30.4757-47.6588C30.4757-62.5136 39.5553-71.5191 54.4913-71.5191L94.5608-71.5191L94.5608-72.0926C94.5608-82.7547 88.8086-88.447 78.0219-88.447L28.9998-88.447C18.1761-88.447 12.4609-82.7689 12.4609-72.0562ZM78.9582 0.519769C75.9556 0.519769 73.7921-1.67441 73.7921-4.64775L73.7921-17.8335L60.6433-17.8335C57.633-17.8335 55.4388-19.9971 55.4388-22.9996C55.4388-26.0534 57.6258-28.254 60.6433-28.254L73.7921-28.254L73.7921-41.3956C73.7921-44.406 75.9556-46.6073 78.9582-46.6073C82.012-46.6073 84.2125-44.4131 84.2125-41.3956L84.2125-28.254L97.3912-28.254C100.372-28.254 102.566-26.0534 102.566-22.9996C102.566-19.9971 100.365-17.8335 97.3912-17.8335L84.2125-17.8335L84.2125-4.64775C84.2125-1.6673 82.012 0.519769 78.9582 0.519769Z"/>
  </g>
  <g id="Medium-M" transform="matrix(1 0 0 1 1681.23 1126)">
   <path d="M53.1735 17.1248L102.183 17.1248C112.706 17.1248 118.192 11.709 118.192 1.28948L118.192-48.0672C118.192-58.4867 112.706-63.9025 102.183-63.9025L53.1735-63.9025C42.6065-63.9025 37.1645-58.5039 37.1645-48.0672L37.1645 1.28948C37.1645 11.7262 42.6065 17.1248 53.1735 17.1248ZM12.4609-22.3295C12.4609-11.9647 17.8413-6.49416 28.47-6.49416L30.0345-6.49416L30.0345-48.0672C30.0345-62.4549 38.6904-71.0239 53.1735-71.0239L93.4883-71.0239L93.4883-71.7067C93.4883-82.1057 88.0028-87.5215 77.4792-87.5215L28.47-87.5215C17.903-87.5215 12.4609-82.1229 12.4609-71.6862ZM77.6261 0.0377131C74.8522 0.0377131 72.8856-1.98663 72.8856-4.74856L72.8856-18.6483L59.0292-18.6483C56.2239-18.6483 54.1995-20.615 54.1995-23.3888C54.1995-26.2234 56.2153-28.2334 59.0292-28.2334L72.8856-28.2334L72.8856-42.0812C72.8856-44.8865 74.8522-46.9195 77.6261-46.9195C80.4606-46.9195 82.4707-44.8951 82.4707-42.0812L82.4707-28.2334L96.3618-28.2334C99.1324-28.2334 101.157-26.2234 101.157-23.3888C101.157-20.615 99.1238-18.6483 96.3618-18.6483L82.4707-18.6483L82.4707-4.74856C82.4707-1.97803 80.4606 0.0377131 77.6261 0.0377131Z"/>
  </g>
  <g id="Regular-M" transform="matrix(1 0 0 1 1385.73 1126)">
   <path d="M51.4547 15.9177L100.447 15.9177C110.628 15.9177 115.765 10.8625 115.765 0.806759L115.765-48.5999C115.765-58.6556 110.628-63.7108 100.447-63.7108L51.4547-63.7108C41.2226-63.7108 36.1367-58.6767 36.1367-48.5999L36.1367 0.806759C36.1367 10.8836 41.2226 15.9177 51.4547 15.9177ZM12.4609-21.7968C12.4609-11.72 17.5468-6.6859 27.7789-6.6859L29.459-6.6859L29.459-48.5999C29.459-62.3783 37.5622-70.3779 51.4547-70.3779L92.0894-70.3779L92.0894-71.2034C92.0894-81.2591 86.9518-86.3144 76.7715-86.3144L27.7789-86.3144C17.5468-86.3144 12.4609-81.2802 12.4609-71.2034ZM75.8886-0.591056C73.413-0.591056 71.7031-2.39389 71.7031-4.88006L71.7031-19.711L56.9239-19.711C54.386-19.711 52.5832-21.4209 52.5832-23.8965C52.5832-26.445 54.3754-28.2067 56.9239-28.2067L71.7031-28.2067L71.7031-42.9753C71.7031-45.5133 73.413-47.3267 75.8886-47.3267C78.4371-47.3267 80.1988-45.5238 80.1988-42.9753L80.1988-28.2067L95.0192-28.2067C97.5159-28.2067 99.3187-26.445 99.3187-23.8965C99.3187-21.4209 97.5054-19.711 95.0192-19.711L80.1988-19.711L80.1988-4.88006C80.1988-2.38333 78.4371-0.591056 75.8886-0.591056Z"/>
  </g>
  <g id="Light-M" transform="matrix(1 0 0 1 1089.93 1126)">
   <path d="M50.5307 14.3435L99.5575 14.3435C109.07 14.3435 113.951 9.47647 113.951 0.0880993L113.951-49.2159C113.951-58.6042 109.07-63.4712 99.5575-63.4712L50.5307-63.4712C40.983-63.4712 36.1367-58.6595 36.1367-49.2159L36.1367 0.0880993C36.1367 9.53179 40.983 14.3435 50.5307 14.3435ZM12.4609-21.1808C12.4609-11.7371 17.3073-6.92545 26.8549-6.92545L30.4515-6.92545L30.4515-49.2159C30.4515-61.7965 37.8531-69.1288 50.5307-69.1288L90.2756-69.1288L90.2756-70.4848C90.2756-79.8731 85.3947-84.7402 75.8817-84.7402L26.8549-84.7402C17.3073-84.7402 12.4609-79.9285 12.4609-70.4848ZM74.9818-1.95993C73.1392-1.95993 71.7887-3.3521 71.7887-5.22228L71.7887-21.3708L55.6748-21.3708C53.77-21.3708 52.3778-22.7214 52.3778-24.5639C52.3778-26.4964 53.7423-27.8816 55.6748-27.8816L71.7887-27.8816L71.7887-43.9678C71.7887-45.8726 73.1392-47.2924 74.9818-47.2924C76.9143-47.2924 78.2994-45.9003 78.2994-43.9678L78.2994-27.8816L94.4203-27.8816C96.3182-27.8816 97.7103-26.4964 97.7103-24.5639C97.7103-22.7214 96.2905-21.3708 94.4203-21.3708L78.2994-21.3708L78.2994-5.22228C78.2994-3.32444 76.9143-1.95993 74.9818-1.95993Z"/>
  </g>
  <g id="Thin-M" transform="matrix(1 0 0 1 794.415 1126)">
   <path d="M49.3086 12.2615L98.3807 12.2615C107.011 12.2615 111.553 7.64339 111.553-0.862386L111.553-50.0306C111.553-58.5363 107.011-63.1544 98.3807-63.1544L49.3086-63.1544C40.6662-63.1544 36.1367-58.6369 36.1367-50.0306L36.1367-0.862386C36.1367 7.74398 40.6662 12.2615 49.3086 12.2615ZM12.4609-20.3661C12.4609-11.7598 16.9904-7.24228 25.6328-7.24228L31.764-7.24228L31.764-50.0306C31.764-61.0271 38.2378-67.4768 49.3086-67.4768L87.8768-67.4768L87.8768-69.5343C87.8768-78.0401 83.3353-82.6581 74.7049-82.6581L25.6328-82.6581C16.9904-82.6581 12.4609-78.1407 12.4609-69.5343ZM73.7823-3.77038C72.7772-3.77038 71.9019-4.61941 71.9019-5.67489L71.9019-23.566L54.0228-23.566C52.9553-23.566 52.1063-24.4413 52.1063-25.4465C52.1063-26.5643 52.905-27.4516 54.0228-27.4516L71.9019-27.4516L71.9019-45.2803C71.9019-46.3478 72.7772-47.2472 73.7823-47.2472C74.9001-47.2472 75.7874-46.3981 75.7874-45.2803L75.7874-27.4516L93.6282-27.4516C94.734-27.4516 95.583-26.5643 95.583-25.4465C95.583-24.4413 94.6837-23.566 93.6282-23.566L75.7874-23.566L75.7874-5.67489C75.7874-4.56912 74.9001-3.77038 73.7823-3.77038Z"/>
  </g>
  <g id="Ultralight-M" transform="matrix(1 0 0 1 498.319 1126)">
   <path d="M48.6827 11.1951L97.7779 11.1951C105.956 11.1951 110.324 6.7045 110.324-1.34922L110.324-50.4478C110.324-58.5016 105.956-62.9921 97.7779-62.9921L48.6827-62.9921C40.5039-62.9921 36.1367-58.6253 36.1367-50.4478L36.1367-1.34922C36.1367 6.82827 40.5039 11.1951 48.6827 11.1951ZM12.4609-19.9488C12.4609-11.7714 16.8282-7.40456 25.0069-7.40456L32.4363-7.40456L32.4363-50.4478C32.4363-60.633 38.4348-66.6306 48.6827-66.6306L86.6481-66.6306L86.6481-69.0475C86.6481-77.1012 82.2805-81.5917 74.1022-81.5917L25.0069-81.5917C16.8282-81.5917 12.4609-77.2249 12.4609-69.0475ZM73.168-4.69768C72.5917-4.69768 71.9598-5.26852 71.9598-5.90672L71.9598-24.6903L53.1766-24.6903C52.538-24.6903 51.9672-25.3222 51.9672-25.8985C51.9672-26.599 52.4761-27.2313 53.1766-27.2313L71.9598-27.2313L71.9598-45.9526C71.9598-46.5913 72.5917-47.224 73.168-47.224C73.8685-47.224 74.5008-46.6531 74.5008-45.9526L74.5008-27.2313L93.2225-27.2313C93.9226-27.2313 94.4935-26.599 94.4935-25.8985C94.4935-25.3222 93.8607-24.6903 93.2225-24.6903L74.5008-24.6903L74.5008-5.90672C74.5008-5.20664 73.8685-4.69768 73.168-4.69768Z"/>
  </g>
  <g id="Black-S" transform="matrix(1 0 0 1 2877.44 696)">
   <path d="M48.4375 10.498L86.9141 10.498C96.4844 10.498 102.148 4.83398 102.148-4.73633L102.148-43.2129C102.148-52.7832 96.4844-58.4473 86.9141-58.4473L48.4375-58.4473C38.8672-58.4473 33.2031-52.7832 33.2031-43.2129L33.2031-4.73633C33.2031 4.83398 38.8672 10.498 48.4375 10.498ZM9.76562-27.1973C9.76562-17.9688 15.1367-11.9629 25-11.9629L25.8789-11.9629L25.8789-43.2129C25.8789-56.8359 34.8145-65.7715 48.4375-65.7715L78.7109-65.7715L78.7109-65.7715C78.7109-75.2441 73.0469-80.9082 63.4766-80.9082L25-80.9082C15.4297-80.9082 9.76562-75.2441 9.76562-65.6738ZM67.6758-5.17578C64.3555-5.17578 61.8164-7.61719 61.8164-10.8398L61.8164-18.1152L54.541-18.1152C51.3184-18.1152 48.877-20.6543 48.877-23.9746C48.877-27.2949 51.3184-29.834 54.541-29.834L61.8164-29.834L61.8164-37.1094C61.8164-40.332 64.3555-42.7734 67.6758-42.7734C70.9961-42.7734 73.5352-40.332 73.5352-37.1094L73.5352-29.834L80.8105-29.834C84.0332-29.834 86.4746-27.2949 86.4746-23.9746C86.4746-20.6543 84.0332-18.1152 80.8105-18.1152L73.5352-18.1152L73.5352-10.8398C73.5352-7.61719 70.9961-5.17578 67.6758-5.17578Z"/>
  </g>
  <g id="Heavy-S" transform="matrix(1 0 0 1 2581.98 696)">
   <path d="M46.6282 9.3456L85.0817 9.3456C94.3523 9.3456 99.6592 4.06185 99.6592-5.18578L99.6592-43.7315C99.6592-52.9791 94.3523-58.2629 85.0817-58.2629L46.6282-58.2629C37.346-58.2629 32.0507-52.9791 32.0507-43.7315L32.0507-5.18578C32.0507 4.06185 37.346 9.3456 46.6282 9.3456ZM9.76562-26.6787C9.76562-17.6922 14.8371-12.1473 24.3431-12.1473L25.1068-12.1473L25.1068-43.7315C25.1068-56.8244 33.5122-65.2068 46.6282-65.2068L77.3741-65.2068L77.3741-65.299C77.3741-74.472 72.0673-79.7558 62.7966-79.7558L24.3431-79.7558C15.0609-79.7558 9.76562-74.472 9.76562-65.2244ZM65.8434-5.70591C62.7766-5.70591 60.4796-7.9514 60.4796-10.9436L60.4796-19.0948L52.3398-19.0948C49.3362-19.0948 47.0907-21.3919 47.0907-24.4586C47.0907-27.5369 49.3362-29.8455 52.3398-29.8455L60.4796-29.8455L60.4796-37.9852C60.4796-40.9889 62.7766-43.2344 65.8434-43.2344C68.9217-43.2344 71.2303-40.9889 71.2303-37.9852L71.2303-29.8455L79.3815-29.8455C82.3737-29.8455 84.6192-27.5369 84.6192-24.4586C84.6192-21.3919 82.3737-19.0948 79.3815-19.0948L71.2303-19.0948L71.2303-10.9436C71.2303-7.9514 68.9217-5.70591 65.8434-5.70591Z"/>
  </g>
  <g id="Bold-S" transform="matrix(1 0 0 1 2286.66 696)">
   <path d="M44.6045 8.05664L83.0322 8.05664C91.9678 8.05664 96.875 3.19824 96.875-5.68848L96.875-44.3115C96.875-53.1982 91.9678-58.0566 83.0322-58.0566L44.6045-58.0566C35.6445-58.0566 30.7617-53.1982 30.7617-44.3115L30.7617-5.68848C30.7617 3.19824 35.6445 8.05664 44.6045 8.05664ZM9.76562-26.0986C9.76562-17.3828 14.502-12.3535 23.6084-12.3535L24.2432-12.3535L24.2432-44.3115C24.2432-56.8115 32.0557-64.5752 44.6045-64.5752L75.8789-64.5752L75.8789-64.7705C75.8789-73.6084 70.9717-78.4668 62.0361-78.4668L23.6084-78.4668C14.6484-78.4668 9.76562-73.6084 9.76562-64.7217ZM63.7939-6.29883C61.0107-6.29883 58.9844-8.3252 58.9844-11.0596L58.9844-20.1904L49.8779-20.1904C47.1191-20.1904 45.0928-22.2168 45.0928-25C45.0928-27.8076 47.1191-29.8584 49.8779-29.8584L58.9844-29.8584L58.9844-38.9648C58.9844-41.7236 61.0107-43.75 63.7939-43.75C66.6016-43.75 68.6523-41.7236 68.6523-38.9648L68.6523-29.8584L77.7832-29.8584C80.5176-29.8584 82.5439-27.8076 82.5439-25C82.5439-22.2168 80.5176-20.1904 77.7832-20.1904L68.6523-20.1904L68.6523-11.0596C68.6523-8.3252 66.6016-6.29883 63.7939-6.29883Z"/>
  </g>
  <g id="Semibold-S" transform="matrix(1 0 0 1 1990.91 696)">
   <path d="M43.2093 7.16797L81.6192 7.16797C90.3237 7.16797 94.9555 2.60283 94.9555-6.03506L94.9555-44.7114C94.9555-53.3493 90.3237-57.9145 81.6192-57.9145L43.2093-57.9145C34.4715-57.9145 29.873-53.3493 29.873-44.7114L29.873-6.03506C29.873 2.60283 34.4715 7.16797 43.2093 7.16797ZM9.76562-25.6987C9.76562-17.1695 14.2709-12.4957 23.1019-12.4957L23.6478-12.4957L23.6478-44.7114C23.6478-56.8026 31.0515-64.1397 43.2093-64.1397L74.848-64.1397L74.848-64.4062C74.848-73.013 70.2163-77.5781 61.5118-77.5781L23.1019-77.5781C14.3641-77.5781 9.76562-73.013 9.76562-64.3751ZM62.381-6.70762C59.7933-6.70762 57.9535-8.58291 57.9535-11.1396L57.9535-20.9458L48.1806-20.9458C45.5906-20.9458 43.7153-22.7855 43.7153-25.3732C43.7153-27.9942 45.5906-29.8673 48.1806-29.8673L57.9535-29.8673L57.9535-39.6402C57.9535-42.2302 59.7933-44.1055 62.381-44.1055C65.002-44.1055 66.875-42.2302 66.875-39.6402L66.875-29.8673L76.6813-29.8673C79.2379-29.8673 81.1132-27.9942 81.1132-25.3732C81.1132-22.7855 79.2379-20.9458 76.6813-20.9458L66.875-20.9458L66.875-11.1396C66.875-8.58291 65.002-6.70762 62.381-6.70762Z"/>
  </g>
  <g id="Medium-S" transform="matrix(1 0 0 1 1694.92 696)">
   <path d="M42.1514 6.49414L80.5479 6.49414C89.0771 6.49414 93.5 2.15137 93.5-6.29785L93.5-45.0146C93.5-53.4639 89.0771-57.8066 80.5479-57.8066L42.1514-57.8066C33.582-57.8066 29.1992-53.4639 29.1992-45.0146L29.1992-6.29785C29.1992 2.15137 33.582 6.49414 42.1514 6.49414ZM9.76562-25.3955C9.76562-17.0078 14.0957-12.6035 22.7178-12.6035L23.1963-12.6035L23.1963-45.0146C23.1963-56.7959 30.29-63.8096 42.1514-63.8096L74.0664-63.8096L74.0664-64.1299C74.0664-72.5615 69.6436-76.9043 61.1143-76.9043L22.7178-76.9043C14.1484-76.9043 9.76562-72.5615 9.76562-64.1123ZM61.3096-7.01758C58.8701-7.01758 57.1719-8.77832 57.1719-11.2002L57.1719-21.5186L46.8936-21.5186C44.4316-21.5186 42.6709-23.2168 42.6709-25.6562C42.6709-28.1357 44.4316-29.874 46.8936-29.874L57.1719-29.874L57.1719-40.1523C57.1719-42.6143 58.8701-44.375 61.3096-44.375C63.7891-44.375 65.5273-42.6143 65.5273-40.1523L65.5273-29.874L75.8457-29.874C78.2676-29.874 80.0283-28.1357 80.0283-25.6562C80.0283-23.2168 78.2676-21.5186 75.8457-21.5186L65.5273-21.5186L65.5273-11.2002C65.5273-8.77832 63.7891-7.01758 61.3096-7.01758Z"/>
  </g>
  <g id="Regular-S" transform="matrix(1 0 0 1 1399.16 696)">
   <path d="M40.7715 5.61523L79.1504 5.61523C87.4512 5.61523 91.6016 1.5625 91.6016-6.64062L91.6016-45.4102C91.6016-53.6133 87.4512-57.666 79.1504-57.666L40.7715-57.666C32.4219-57.666 28.3203-53.6133 28.3203-45.4102L28.3203-6.64062C28.3203 1.5625 32.4219 5.61523 40.7715 5.61523ZM9.76562-25C9.76562-16.7969 13.8672-12.7441 22.2168-12.7441L22.6074-12.7441L22.6074-45.4102C22.6074-56.7871 29.2969-63.3789 40.7715-63.3789L73.0469-63.3789L73.0469-63.7695C73.0469-71.9727 68.8965-76.0254 60.5957-76.0254L22.2168-76.0254C13.8672-76.0254 9.76562-71.9727 9.76562-63.7695ZM59.9121-7.42188C57.666-7.42188 56.1523-9.0332 56.1523-11.2793L56.1523-22.2656L45.2148-22.2656C42.9199-22.2656 41.3086-23.7793 41.3086-26.0254C41.3086-28.3203 42.9199-29.8828 45.2148-29.8828L56.1523-29.8828L56.1523-40.8203C56.1523-43.1152 57.666-44.7266 59.9121-44.7266C62.207-44.7266 63.7695-43.1152 63.7695-40.8203L63.7695-29.8828L74.7559-29.8828C77.002-29.8828 78.6133-28.3203 78.6133-26.0254C78.6133-23.7793 77.002-22.2656 74.7559-22.2656L63.7695-22.2656L63.7695-11.2793C63.7695-9.0332 62.207-7.42188 59.9121-7.42188Z"/>
  </g>
  <g id="Light-S" transform="matrix(1 0 0 1 1103.25 696)">
   <path d="M39.9541 4.22267L78.3633 4.22267C86.0737 4.22267 89.9971 0.336435 89.9971-7.27636L89.9971-45.9551C89.9971-53.5679 86.0737-57.4541 78.3633-57.4541L39.9541-57.4541C32.21-57.4541 28.3203-53.5981 28.3203-45.9551L28.3203-7.27636C28.3203 0.366709 32.21 4.22267 39.9541 4.22267ZM9.76562-24.4551C9.76562-16.812 13.6553-12.9561 21.3994-12.9561L23.4853-12.9561L23.4853-45.9551C23.4853-56.2725 29.5542-62.2739 39.9541-62.2739L71.4424-62.2739L71.4424-63.1338C71.4424-70.7466 67.5191-74.6328 59.8086-74.6328L21.3994-74.6328C13.6553-74.6328 9.76562-70.7769 9.76562-63.1338ZM59.1099-8.6328C57.4238-8.6328 56.228-9.88085 56.228-11.582L56.228-23.7339L44.1099-23.7339C42.375-23.7339 41.127-24.9297 41.127-26.6157C41.127-28.3657 42.3599-29.5952 44.1099-29.5952L56.228-29.5952L56.228-41.6982C56.228-43.4331 57.4238-44.6963 59.1099-44.6963C60.8599-44.6963 62.0894-43.4482 62.0894-41.6982L62.0894-29.5952L74.2261-29.5952C75.9424-29.5952 77.1904-28.3657 77.1904-26.6157C77.1904-24.9297 75.9273-23.7339 74.2261-23.7339L62.0894-23.7339L62.0894-11.582C62.0894-9.86572 60.8599-8.6328 59.1099-8.6328Z"/>
  </g>
  <g id="Thin-S" transform="matrix(1 0 0 1 807.602 696)">
   <path d="M38.8731 2.38088L77.3223 2.38088C84.252 2.38088 87.875-1.28513 87.875-8.11718L87.875-46.6758C87.875-53.5078 84.252-57.1738 77.3223-57.1738L38.8731-57.1738C31.9297-57.1738 28.3203-53.5781 28.3203-46.6758L28.3203-8.11718C28.3203-1.21482 31.9297 2.38088 38.8731 2.38088ZM9.76562-23.7344C9.76562-16.832 13.375-13.2363 20.3184-13.2363L24.6465-13.2363L24.6465-46.6758C24.6465-55.5918 29.8945-60.8125 38.8731-60.8125L69.3203-60.8125L69.3203-62.293C69.3203-69.125 65.6973-72.791 58.7676-72.791L20.3184-72.791C13.375-72.791 9.76562-69.1953 9.76562-62.293ZM58.0488-10.2344C57.1035-10.2344 56.3281-11.0019 56.3281-11.9824L56.3281-25.6758L42.6485-25.6758C41.6543-25.6758 40.8867-26.4512 40.8867-27.3965C40.8867-28.4258 41.6192-29.2148 42.6485-29.2148L56.3281-29.2148L56.3281-42.8594C56.3281-43.8535 57.1035-44.6563 58.0488-44.6563C59.0781-44.6563 59.8672-43.8887 59.8672-42.8594L59.8672-29.2148L73.5254-29.2148C74.541-29.2148 75.3086-28.4258 75.3086-27.3965C75.3086-26.4512 74.5059-25.6758 73.5254-25.6758L59.8672-25.6758L59.8672-11.9824C59.8672-10.9668 59.0781-10.2344 58.0488-10.2344Z"/>
  </g>
  <g id="Ultralight-S" transform="matrix(1 0 0 1 511.434 696)">
   <path d="M38.3194 1.43753L76.7891 1.43753C83.3189 1.43753 86.7881-2.11569 86.7881-8.54784L86.7881-47.0449C86.7881-53.4771 83.3189-57.0303 76.7891-57.0303L38.3194-57.0303C31.7861-57.0303 28.3203-53.5679 28.3203-47.0449L28.3203-8.54784C28.3203-2.02487 31.7861 1.43753 38.3194 1.43753ZM9.76562-23.3652C9.76562-16.8423 13.2315-13.3799 19.7647-13.3799L25.2412-13.3799L25.2412-47.0449C25.2412-55.2432 30.0688-60.064 38.3194-60.064L68.2334-60.064L68.2334-61.8623C68.2334-68.2945 64.7642-71.8477 58.2344-71.8477L19.7647-71.8477C13.2315-71.8477 9.76562-68.3853 9.76562-61.8623ZM57.5054-11.0547C56.9395-11.0547 56.3794-11.5762 56.3794-12.1875L56.3794-26.6704L41.8999-26.6704C41.2852-26.6704 40.7637-27.2304 40.7637-27.7964C40.7637-28.4565 41.2398-29.02 41.8999-29.02L56.3794-29.02L56.3794-43.4541C56.3794-44.0688 56.9395-44.6357 57.5054-44.6357C58.1656-44.6357 58.729-44.1142 58.729-43.4541L58.729-29.02L73.1665-29.02C73.8233-29.02 74.3448-28.4565 74.3448-27.7964C74.3448-27.2304 73.7779-26.6704 73.1665-26.6704L58.729-26.6704L58.729-12.1875C58.729-11.5307 58.1656-11.0547 57.5054-11.0547Z"/>
  </g>
 </g>
</svg>
